# xmcd
#
# Track frame offsets:
#	150
#	12625
#	26183
#	38130
#	55468
#	67315
#	78883
#	92400
#	106760
#	117568
#	129045
#	139938
#	155643
#	171848
#	182748
#	194545
#	204518
#	214455
#
# Disc length: 3041
#
# Revision: 1
# Processed by: cddbd v1.5.1PL0 Copyright (c) Steve Scherf et al.
# Submitted via: dBpowerAMP V4.0
# Normalized: r0:TDELIM( - )
#
DISCID=0b0bdf12
DTITLE=Kenny and Dolly - The Natural Collection CD2
DYEAR=1900
DGENRE=Country
TTITLE0=Kenny Rogers - Ruben James
TTITLE1=Kenny Rogers - But You Know That I Love You
TTITLE2=Dolly Parton - Letter To Heaven
TTITLE3=Kenny Rogers - Somthing`s Burning
TTITLE4=Kenny Rogers - Elvira
TTITLE5=Kenny Rogers - Me And Bobby Mcghee
TTITLE6=Kenny Rogers - Shine On Ruby Mountain
TTITLE7=Kenny Rogers - It`s Raining In My Mind
TTITLE8=Kenny Rogers - Goodtime Liberaton
TTITLE9=Dolly Parton - Makin Believe
TTITLE10=Kenny Rogers - She Even Work Me Up To Say Goodbye
TTITLE11=Kenny Rogers - Tulsa Turnaround
TTITLE12=Kenny Rogers - The Way It Used To Be
TTITLE13=Kenny Rogers - Homemade Lies
TTITLE14=Kenny Rogers - Girl Get A Hold Of Yourself
TTITLE15=Dolly Parton - Girl Left Alone
TTITLE16=Kenny Rogers - Once Again She`s All Alone
TTITLE17=Kenny Rogers - Sleep Comes Easy
EXTD=
EXTT0=
EXTT1=
EXTT2=
EXTT3=
EXTT4=
EXTT5=
EXTT6=
EXTT7=
EXTT8=
EXTT9=
EXTT10=
EXTT11=
EXTT12=
EXTT13=
EXTT14=
EXTT15=
EXTT16=
EXTT17=
PLAYORDER=
